<?xml version="1.0" standalone="no"?>
<!DOCTYPE svg PUBLIC "-//W3C//DTD SVG 20010904//EN"
 "http://www.w3.org/TR/2001/REC-SVG-20010904/DTD/svg10.dtd">
<svg version="1.0" xmlns="http://www.w3.org/2000/svg"
 width="512.000000pt" height="533.000000pt" viewBox="0 0 512.000000 533.000000"
 preserveAspectRatio="xMidYMid meet">
<metadata>
Created by potrace 1.16, written by Peter Selinger 2001-2019
</metadata>
<g transform="translate(0.000000,533.000000) scale(0.100000,-0.100000)"
fill="#FFFFFF" stroke="none">
<path d="M2280 4885 c-884 -109 -1618 -710 -1900 -1554 -81 -241 -114 -454
-114 -726 0 -229 16 -364 68 -569 258 -1017 1180 -1729 2235 -1726 250 1 314
20 352 104 25 54 24 92 -3 146 -17 33 -35 51 -67 67 -41 21 -52 22 -210 16
-190 -6 -331 6 -499 43 -440 98 -833 340 -1109 683 -375 467 -520 1067 -398
1638 158 743 727 1330 1460 1509 495 120 1042 38 1470 -221 632 -382 991
-1055 960 -1795 -7 -152 -6 -156 17 -190 40 -59 84 -82 149 -78 70 5 114 35
142 97 19 42 21 66 21 256 1 222 -9 322 -50 515 -122 571 -479 1092 -974 1421
-215 143 -526 275 -773 328 -229 50 -548 64 -777 36z"/>
<path d="M2455 3829 c-269 -41 -486 -228 -567 -489 -19 -63 -23 -96 -22 -205
0 -113 4 -141 27 -210 118 -357 483 -554 849 -459 177 45 357 191 436 354 58
118 76 194 76 320 0 126 -18 202 -76 320 -80 164 -261 309 -441 354 -77 20
-208 27 -282 15z m225 -344 c106 -35 206 -148 236 -264 41 -162 -44 -335 -204
-413 -60 -30 -75 -33 -152 -33 -71 0 -95 5 -142 27 -79 37 -120 70 -162 131
-101 149 -81 343 48 465 60 57 94 76 168 97 60 17 138 13 208 -10z"/>
<path d="M3797 2120 c-374 -68 -666 -347 -742 -711 -19 -90 -19 -287 0 -377
69 -330 309 -587 642 -689 79 -24 105 -26 243 -27 121 0 170 4 224 18 275 74
486 246 606 497 65 137 83 220 83 389 0 117 -4 160 -22 225 -86 322 -333 570
-651 656 -85 23 -302 34 -383 19z m265 -331 c29 -6 91 -29 138 -51 193 -92
330 -307 330 -518 0 -211 -137 -426 -330 -518 -136 -65 -255 -78 -395 -42
-156 40 -295 148 -367 286 -49 93 -68 169 -68 274 0 145 50 278 145 387 74 84
207 160 318 183 62 12 169 12 229 -1z"/>
<path d="M2375 2094 c-330 -49 -611 -177 -833 -380 -86 -79 -102 -106 -102
-176 0 -97 61 -158 158 -158 65 0 80 8 162 83 135 124 317 223 507 275 92 25
111 26 328 27 211 0 233 2 265 20 40 23 80 93 80 140 0 53 -40 117 -90 144
-43 24 -53 25 -245 27 -110 1 -213 0 -230 -2z"/>
</g>
</svg>
